<?xml version="1.0" encoding="UTF-8"?>
<svg width="32px" height="32px" viewBox="0 0 32 32" version="1.1" xmlns="http://www.w3.org/2000/svg" xmlns:xlink="http://www.w3.org/1999/xlink">
    <title>Path 2 Copy 2</title>
    <g id="Page-1" stroke="none" stroke-width="1" fill="none" fill-rule="evenodd">
        <path d="M31,0 L9.38019932,0 C9.13528516,4.49900016e-17 8.89888661,0.0898785688 8.71583548,0.252590681 L0.335636161,7.70165675 C0.122147797,7.89142418 -3.49805434e-17,8.16342825 0,8.44906606 L0,23.5509339 C3.49805434e-17,23.8365717 0.122147797,24.1085758 0.335636161,24.2983433 L8.71583548,31.7474093 C8.89888661,31.9101214 9.13528516,32 9.38019932,32 L10.6492189,32 C10.8762904,32 11.0966009,31.9227192 11.273914,31.7808688 L20.624695,24.300244 C20.8619103,24.1104718 21,23.8231589 21,23.5193752 L21,21 L21,21 L23,21 L23,31 C23,31.5522847 23.4477153,32 24,32 L31,32 C31.5522847,32 32,31.5522847 32,31 L32,19.4490661 C32,19.1634283 31.8778522,18.8914242 31.6643638,18.7016567 L23.2841645,11.2525907 C23.1011134,11.0898786 22.8647148,11 22.6198007,11 L12,11 C11.4477153,11 11,11.4477153 11,12 L11,23 L11,23 L9,23 L9,10 C9,9.44771525 9.44771525,9 10,9 L31,9 C31.5522847,9 32,8.55228475 32,8 L32,1 C32,0.44771525 31.5522847,-1.01453063e-16 31,0 Z" id="Path-2-Copy-2" fill="#FFFFFF"></path>
    </g>
</svg>